<svg width="52" height="51" viewBox="0 0 52 51" fill="none" xmlns="http://www.w3.org/2000/svg">
<g opacity="0.5" filter="url(#filter0_d_19_5181)">
<rect x="4.78809" y="6.86505" width="9" height="9" rx="1.5" transform="rotate(-10 4.78809 6.86505)" stroke="url(#paint0_linear_19_5181)"/>
<rect x="8.60834" y="28.5308" width="9" height="9" rx="1.5" transform="rotate(-10 8.60834 28.5308)" stroke="url(#paint1_linear_19_5181)"/>
<rect x="30.2741" y="24.7105" width="9" height="9" rx="1.5" transform="rotate(-10 30.2741 24.7105)" stroke="url(#paint2_linear_19_5181)"/>
<rect x="26.4539" y="3.04474" width="9" height="9" rx="1.5" transform="rotate(-10 26.4539 3.04474)" stroke="url(#paint3_linear_19_5181)"/>
<rect x="6.69825" y="17.6978" width="9" height="9" rx="1.5" transform="rotate(-10 6.69825 17.6978)" stroke="url(#paint4_linear_19_5181)"/>
<rect x="28.364" y="13.8777" width="9" height="9" rx="1.5" transform="rotate(-10 28.364 13.8777)" stroke="url(#paint5_linear_19_5181)"/>
<rect x="17.5311" y="15.7879" width="9" height="9" rx="1.5" transform="rotate(-10 17.5311 15.7879)" stroke="url(#paint6_linear_19_5181)"/>
<rect x="19.4412" y="26.6207" width="9" height="9" rx="1.5" transform="rotate(-10 19.4412 26.6207)" stroke="url(#paint7_linear_19_5181)"/>
<rect x="15.621" y="4.9549" width="9" height="9" rx="1.5" transform="rotate(-10 15.621 4.9549)" stroke="url(#paint8_linear_19_5181)"/>
</g>
<g filter="url(#filter1_d_19_5181)">
<rect x="8.26343" y="9.29865" width="9" height="9" rx="1.5" transform="rotate(-10 8.26343 9.29865)" stroke="url(#paint9_linear_19_5181)"/>
<rect x="12.0837" y="30.9644" width="9" height="9" rx="1.5" transform="rotate(-10 12.0837 30.9644)" stroke="url(#paint10_linear_19_5181)"/>
<rect x="33.7495" y="27.1441" width="9" height="9" rx="1.5" transform="rotate(-10 33.7495 27.1441)" stroke="url(#paint11_linear_19_5181)"/>
<rect x="29.9292" y="5.47833" width="9" height="9" rx="1.5" transform="rotate(-10 29.9292 5.47833)" stroke="url(#paint12_linear_19_5181)"/>
<rect x="10.1736" y="20.1314" width="9" height="9" rx="1.5" transform="rotate(-10 10.1736 20.1314)" stroke="url(#paint13_linear_19_5181)"/>
<rect x="31.8394" y="16.3113" width="9" height="9" rx="1.5" transform="rotate(-10 31.8394 16.3113)" stroke="url(#paint14_linear_19_5181)"/>
<rect x="21.0065" y="18.2215" width="9" height="9" rx="1.5" transform="rotate(-10 21.0065 18.2215)" stroke="url(#paint15_linear_19_5181)"/>
<rect x="22.9166" y="29.0543" width="9" height="9" rx="1.5" transform="rotate(-10 22.9166 29.0543)" stroke="url(#paint16_linear_19_5181)"/>
<rect x="19.0963" y="7.38849" width="9" height="9" rx="1.5" transform="rotate(-10 19.0963 7.38849)" stroke="url(#paint17_linear_19_5181)"/>
</g>
<g filter="url(#filter2_d_19_5181)">
<rect x="11.7388" y="11.732" width="9" height="9" rx="1.5" transform="rotate(-10 11.7388 11.732)" fill="white" fill-opacity="0.6" stroke="url(#paint18_linear_19_5181)"/>
<rect x="15.5591" y="33.3978" width="9" height="9" rx="1.5" transform="rotate(-10 15.5591 33.3978)" fill="white" fill-opacity="0.6" stroke="url(#paint19_linear_19_5181)"/>
<rect x="37.2249" y="29.5775" width="9" height="9" rx="1.5" transform="rotate(-10 37.2249 29.5775)" fill="white" fill-opacity="0.6" stroke="url(#paint20_linear_19_5181)"/>
<rect x="33.4046" y="7.91168" width="9" height="9" rx="1.5" transform="rotate(-10 33.4046 7.91168)" fill="white" fill-opacity="0.6" stroke="url(#paint21_linear_19_5181)"/>
<rect x="13.649" y="22.5648" width="9" height="9" rx="1.5" transform="rotate(-10 13.649 22.5648)" fill="white" fill-opacity="0.6" stroke="url(#paint22_linear_19_5181)"/>
<rect x="35.3148" y="18.7447" width="9" height="9" rx="1.5" transform="rotate(-10 35.3148 18.7447)" fill="white" fill-opacity="0.6" stroke="url(#paint23_linear_19_5181)"/>
<rect x="24.4819" y="20.6548" width="9" height="9" rx="1.5" transform="rotate(-10 24.4819 20.6548)" fill="white" fill-opacity="0.6" stroke="url(#paint24_linear_19_5181)"/>
<rect x="26.392" y="31.4876" width="9" height="9" rx="1.5" transform="rotate(-10 26.392 31.4876)" fill="white" fill-opacity="0.6" stroke="url(#paint25_linear_19_5181)"/>
<rect x="22.5717" y="9.82184" width="9" height="9" rx="1.5" transform="rotate(-10 22.5717 9.82184)" fill="white" fill-opacity="0.6" stroke="url(#paint26_linear_19_5181)"/>
</g>
<defs>
<filter id="filter0_d_19_5181" x="0.525452" y="1.21924" width="44.4374" height="44.4375" filterUnits="userSpaceOnUse" color-interpolation-filters="sRGB">
<feFlood flood-opacity="0" result="BackgroundImageFix"/>
<feColorMatrix in="SourceAlpha" type="matrix" values="0 0 0 0 0 0 0 0 0 0 0 0 0 0 0 0 0 0 127 0" result="hardAlpha"/>
<feOffset dy="4"/>
<feGaussianBlur stdDeviation="2"/>
<feColorMatrix type="matrix" values="0 0 0 0 1 0 0 0 0 1 0 0 0 0 1 0 0 0 1 0"/>
<feBlend mode="normal" in2="BackgroundImageFix" result="effect1_dropShadow_19_5181"/>
<feBlend mode="normal" in="SourceGraphic" in2="effect1_dropShadow_19_5181" result="shape"/>
</filter>
<filter id="filter1_d_19_5181" x="4.00079" y="3.65283" width="44.4374" height="44.4375" filterUnits="userSpaceOnUse" color-interpolation-filters="sRGB">
<feFlood flood-opacity="0" result="BackgroundImageFix"/>
<feColorMatrix in="SourceAlpha" type="matrix" values="0 0 0 0 0 0 0 0 0 0 0 0 0 0 0 0 0 0 127 0" result="hardAlpha"/>
<feOffset dy="4"/>
<feGaussianBlur stdDeviation="2"/>
<feColorMatrix type="matrix" values="0 0 0 0 1 0 0 0 0 1 0 0 0 0 1 0 0 0 1 0"/>
<feBlend mode="normal" in2="BackgroundImageFix" result="effect1_dropShadow_19_5181"/>
<feBlend mode="normal" in="SourceGraphic" in2="effect1_dropShadow_19_5181" result="shape"/>
</filter>
<filter id="filter2_d_19_5181" x="7.4762" y="6.08618" width="44.4374" height="44.4375" filterUnits="userSpaceOnUse" color-interpolation-filters="sRGB">
<feFlood flood-opacity="0" result="BackgroundImageFix"/>
<feColorMatrix in="SourceAlpha" type="matrix" values="0 0 0 0 0 0 0 0 0 0 0 0 0 0 0 0 0 0 127 0" result="hardAlpha"/>
<feOffset dy="4"/>
<feGaussianBlur stdDeviation="2"/>
<feColorMatrix type="matrix" values="0 0 0 0 1 0 0 0 0 1 0 0 0 0 1 0 0 0 1 0"/>
<feBlend mode="normal" in2="BackgroundImageFix" result="effect1_dropShadow_19_5181"/>
<feBlend mode="normal" in="SourceGraphic" in2="effect1_dropShadow_19_5181" result="shape"/>
</filter>
<linearGradient id="paint0_linear_19_5181" x1="-0.791138" y1="11.4595" x2="9.20886" y2="21.4595" gradientUnits="userSpaceOnUse">
<stop stop-color="#92D1FF"/>
<stop offset="0.732292" stop-color="#2C3093" stop-opacity="0"/>
</linearGradient>
<linearGradient id="paint1_linear_19_5181" x1="3.02911" y1="33.1252" x2="13.0291" y2="43.1252" gradientUnits="userSpaceOnUse">
<stop stop-color="#92D1FF"/>
<stop offset="0.732292" stop-color="#2C3093" stop-opacity="0"/>
</linearGradient>
<linearGradient id="paint2_linear_19_5181" x1="24.6949" y1="29.3049" x2="34.6949" y2="39.3049" gradientUnits="userSpaceOnUse">
<stop stop-color="#92D1FF"/>
<stop offset="0.732292" stop-color="#2C3093" stop-opacity="0"/>
</linearGradient>
<linearGradient id="paint3_linear_19_5181" x1="20.8746" y1="7.63916" x2="30.8746" y2="17.6392" gradientUnits="userSpaceOnUse">
<stop stop-color="#92D1FF"/>
<stop offset="0.732292" stop-color="#2C3093" stop-opacity="0"/>
</linearGradient>
<linearGradient id="paint4_linear_19_5181" x1="1.11902" y1="22.2922" x2="11.119" y2="32.2922" gradientUnits="userSpaceOnUse">
<stop stop-color="#92D1FF"/>
<stop offset="0.732292" stop-color="#2C3093" stop-opacity="0"/>
</linearGradient>
<linearGradient id="paint5_linear_19_5181" x1="22.7848" y1="18.4722" x2="32.7848" y2="28.4722" gradientUnits="userSpaceOnUse">
<stop stop-color="#92D1FF"/>
<stop offset="0.732292" stop-color="#2C3093" stop-opacity="0"/>
</linearGradient>
<linearGradient id="paint6_linear_19_5181" x1="11.9519" y1="20.3823" x2="21.9519" y2="30.3823" gradientUnits="userSpaceOnUse">
<stop stop-color="#92D1FF"/>
<stop offset="0.732292" stop-color="#2C3093" stop-opacity="0"/>
</linearGradient>
<linearGradient id="paint7_linear_19_5181" x1="13.862" y1="31.2151" x2="23.862" y2="41.2151" gradientUnits="userSpaceOnUse">
<stop stop-color="#92D1FF"/>
<stop offset="0.732292" stop-color="#2C3093" stop-opacity="0"/>
</linearGradient>
<linearGradient id="paint8_linear_19_5181" x1="10.0417" y1="9.54932" x2="20.0417" y2="19.5493" gradientUnits="userSpaceOnUse">
<stop stop-color="#92D1FF"/>
<stop offset="0.732292" stop-color="#2C3093" stop-opacity="0"/>
</linearGradient>
<linearGradient id="paint9_linear_19_5181" x1="2.6842" y1="13.8931" x2="12.6842" y2="23.8931" gradientUnits="userSpaceOnUse">
<stop stop-color="#9296FF"/>
<stop offset="0.732292" stop-color="#932C6E" stop-opacity="0"/>
</linearGradient>
<linearGradient id="paint10_linear_19_5181" x1="6.50446" y1="35.5588" x2="16.5045" y2="45.5588" gradientUnits="userSpaceOnUse">
<stop stop-color="#9296FF"/>
<stop offset="0.732292" stop-color="#932C6E" stop-opacity="0"/>
</linearGradient>
<linearGradient id="paint11_linear_19_5181" x1="28.1702" y1="31.7385" x2="38.1702" y2="41.7385" gradientUnits="userSpaceOnUse">
<stop stop-color="#9296FF"/>
<stop offset="0.732292" stop-color="#932C6E" stop-opacity="0"/>
</linearGradient>
<linearGradient id="paint12_linear_19_5181" x1="24.35" y1="10.0728" x2="34.35" y2="20.0728" gradientUnits="userSpaceOnUse">
<stop stop-color="#9296FF"/>
<stop offset="0.732292" stop-color="#932C6E" stop-opacity="0"/>
</linearGradient>
<linearGradient id="paint13_linear_19_5181" x1="4.59436" y1="24.7258" x2="14.5944" y2="34.7258" gradientUnits="userSpaceOnUse">
<stop stop-color="#9296FF"/>
<stop offset="0.732292" stop-color="#932C6E" stop-opacity="0"/>
</linearGradient>
<linearGradient id="paint14_linear_19_5181" x1="26.2601" y1="20.9058" x2="36.2601" y2="30.9058" gradientUnits="userSpaceOnUse">
<stop stop-color="#9296FF"/>
<stop offset="0.732292" stop-color="#932C6E" stop-opacity="0"/>
</linearGradient>
<linearGradient id="paint15_linear_19_5181" x1="15.4272" y1="22.8159" x2="25.4272" y2="32.8159" gradientUnits="userSpaceOnUse">
<stop stop-color="#9296FF"/>
<stop offset="0.732292" stop-color="#932C6E" stop-opacity="0"/>
</linearGradient>
<linearGradient id="paint16_linear_19_5181" x1="17.3373" y1="33.6487" x2="27.3373" y2="43.6487" gradientUnits="userSpaceOnUse">
<stop stop-color="#9296FF"/>
<stop offset="0.732292" stop-color="#932C6E" stop-opacity="0"/>
</linearGradient>
<linearGradient id="paint17_linear_19_5181" x1="13.5171" y1="11.9829" x2="23.5171" y2="21.9829" gradientUnits="userSpaceOnUse">
<stop stop-color="#9296FF"/>
<stop offset="0.732292" stop-color="#932C6E" stop-opacity="0"/>
</linearGradient>
<linearGradient id="paint18_linear_19_5181" x1="6.15961" y1="16.3264" x2="16.1596" y2="26.3264" gradientUnits="userSpaceOnUse">
<stop stop-color="#FF92E2"/>
<stop offset="0.732292" stop-color="#932C6E" stop-opacity="0"/>
</linearGradient>
<linearGradient id="paint19_linear_19_5181" x1="9.97986" y1="37.9922" x2="19.9799" y2="47.9922" gradientUnits="userSpaceOnUse">
<stop stop-color="#FF92E2"/>
<stop offset="0.732292" stop-color="#932C6E" stop-opacity="0"/>
</linearGradient>
<linearGradient id="paint20_linear_19_5181" x1="31.6456" y1="34.1719" x2="41.6456" y2="44.1719" gradientUnits="userSpaceOnUse">
<stop stop-color="#FF92E2"/>
<stop offset="0.732292" stop-color="#932C6E" stop-opacity="0"/>
</linearGradient>
<linearGradient id="paint21_linear_19_5181" x1="27.8254" y1="12.5061" x2="37.8254" y2="22.5061" gradientUnits="userSpaceOnUse">
<stop stop-color="#FF92E2"/>
<stop offset="0.732292" stop-color="#932C6E" stop-opacity="0"/>
</linearGradient>
<linearGradient id="paint22_linear_19_5181" x1="8.06976" y1="27.1592" x2="18.0698" y2="37.1592" gradientUnits="userSpaceOnUse">
<stop stop-color="#FF92E2"/>
<stop offset="0.732292" stop-color="#932C6E" stop-opacity="0"/>
</linearGradient>
<linearGradient id="paint23_linear_19_5181" x1="29.7355" y1="23.3391" x2="39.7355" y2="33.3391" gradientUnits="userSpaceOnUse">
<stop stop-color="#FF92E2"/>
<stop offset="0.732292" stop-color="#932C6E" stop-opacity="0"/>
</linearGradient>
<linearGradient id="paint24_linear_19_5181" x1="18.9026" y1="25.2493" x2="28.9026" y2="35.2493" gradientUnits="userSpaceOnUse">
<stop stop-color="#FF92E2"/>
<stop offset="0.732292" stop-color="#932C6E" stop-opacity="0"/>
</linearGradient>
<linearGradient id="paint25_linear_19_5181" x1="20.8127" y1="36.082" x2="30.8127" y2="46.082" gradientUnits="userSpaceOnUse">
<stop stop-color="#FF92E2"/>
<stop offset="0.732292" stop-color="#932C6E" stop-opacity="0"/>
</linearGradient>
<linearGradient id="paint26_linear_19_5181" x1="16.9925" y1="14.4163" x2="26.9925" y2="24.4163" gradientUnits="userSpaceOnUse">
<stop stop-color="#FF92E2"/>
<stop offset="0.732292" stop-color="#932C6E" stop-opacity="0"/>
</linearGradient>
</defs>
</svg>
