<svg width="19" height="21" viewBox="0 0 19 21" fill="none" xmlns="http://www.w3.org/2000/svg">
<path fill-rule="evenodd" clip-rule="evenodd" d="M2.79257 6.1681C2.7695 6.37733 2.69845 6.57842 2.58494 6.7557C2.47143 6.93298 2.31853 7.08166 2.13815 7.19017C2.08227 7.20072 2.02492 7.20072 1.96904 7.19017C1.89134 7.19271 1.81542 7.16655 1.7558 7.11666L1.69697 7.07254C1.54139 6.88835 1.46244 6.65146 1.47639 6.41076C1.47639 6.41076 1.47639 6.35194 1.47639 6.32253C1.47697 6.08053 1.53943 5.84268 1.65783 5.63162C1.77623 5.42056 1.94665 5.24328 2.15287 5.11664C2.46169 4.98428 2.73375 5.19754 2.81463 5.5946C2.82259 5.68265 2.82259 5.77123 2.81463 5.85929C2.82545 5.95211 2.82545 6.04588 2.81463 6.13871L2.79257 6.1681ZM0.741094 4.49901C0.506264 4.6482 0.31474 4.85643 0.185696 5.1029C0.0566533 5.34938 -0.00538051 5.62542 0.00579988 5.90341V8.16813C0.00579988 8.77107 0.329329 9.1387 0.741094 8.98429L9.49845 5.55622V0.756348L0.741094 4.49901Z" fill="#FF92E2"/>
<path fill-rule="evenodd" clip-rule="evenodd" d="M5.09401 8.43307L0.513116 10.1831C0.349259 10.2826 0.215504 10.4248 0.126149 10.5945C0.0367936 10.7641 -0.00481042 10.9549 0.00576162 11.1463V14.0875C0.00576162 14.514 0.233705 14.7787 0.513116 14.6831L5.09401 13.1022C5.2684 13.0035 5.41216 12.8586 5.50947 12.6835C5.60678 12.5083 5.65385 12.3097 5.64548 12.1095V9.05806C5.64548 8.58011 5.39548 8.31543 5.09401 8.43307Z" fill="#FF92E2"/>
<path fill-rule="evenodd" clip-rule="evenodd" d="M9.4984 6.74902V11.5505L7.97633 12.0725C7.5278 12.227 7.16751 11.8373 7.16751 11.1975V8.80048C7.15654 8.50509 7.226 8.21226 7.36845 7.95326C7.5109 7.69426 7.721 7.47881 7.97633 7.32989L9.4984 6.75634V6.74902Z" fill="#FF92E2"/>
<path fill-rule="evenodd" clip-rule="evenodd" d="M2.79259 17.5505C2.77386 17.7523 2.70392 17.9461 2.5894 18.1133C2.47488 18.2806 2.31957 18.4159 2.13817 18.5064C2.08203 18.5136 2.0252 18.5136 1.96906 18.5064C1.89058 18.4946 1.81682 18.4616 1.75582 18.4108L1.69699 18.3593C1.54362 18.1681 1.4652 17.9277 1.47641 17.6829C1.47641 17.6829 1.47641 17.624 1.47641 17.5946C1.473 17.3598 1.53431 17.1284 1.65363 16.9261C1.77296 16.7238 1.9457 16.5582 2.15289 16.4475C2.46171 16.3446 2.73376 16.5725 2.81465 16.9843C2.8226 17.0723 2.8226 17.161 2.81465 17.2491C2.82547 17.3419 2.82547 17.4357 2.81465 17.5285L2.79259 17.5505ZM9.49111 12.749L0.733752 15.6902C0.500424 15.8246 0.308463 16.0205 0.178804 16.2564C0.0491443 16.4924 -0.0132356 16.7594 -0.00154176 17.0284V19.3005C-0.00154176 19.9034 0.321988 20.3005 0.733752 20.1755L9.49111 17.5431V12.749Z" fill="#FF92E2"/>
<path fill-rule="evenodd" clip-rule="evenodd" d="M18.472 15.7713L13.8985 14.2271C13.5896 14.1315 13.347 14.4036 13.347 14.8448V17.8963C13.3339 18.0942 13.3792 18.2917 13.4772 18.4642C13.5752 18.6367 13.7217 18.7767 13.8985 18.8668L18.472 20.2418C18.7514 20.3227 18.9793 20.0507 18.9793 19.6242V16.683C18.9907 16.4945 18.9493 16.3064 18.8597 16.1402C18.77 15.9739 18.6358 15.8359 18.472 15.7418V15.7713Z" fill="#FFB4EF"/>
<path fill-rule="evenodd" clip-rule="evenodd" d="M9.49402 12.749V17.5431L11.0161 17.999C11.4573 18.1313 11.8249 17.7269 11.8249 17.0872V14.727C11.8444 14.4302 11.7786 14.1341 11.6353 13.8735C11.492 13.6129 11.2771 13.3988 11.0161 13.2564L9.49402 12.749Z" fill="#FFB4EF"/>
<path fill-rule="evenodd" clip-rule="evenodd" d="M17.3102 12.7417C17.2949 12.7606 17.2777 12.7779 17.2587 12.7931C17.1966 12.8445 17.1187 12.873 17.0381 12.874C16.9826 12.888 16.9245 12.888 16.869 12.874C16.6861 12.777 16.53 12.6362 16.4145 12.4643C16.2991 12.2925 16.2279 12.0948 16.2073 11.8887C16.1997 11.7957 16.1997 11.7023 16.2073 11.6093C16.1993 11.5237 16.1993 11.4375 16.2073 11.3519C16.2808 10.9475 16.5528 10.7196 16.869 10.8373C17.0749 10.957 17.2457 11.1286 17.3644 11.3351C17.4831 11.5416 17.5455 11.7756 17.5454 12.0137V12.1093C17.55 12.3423 17.466 12.5683 17.3102 12.7417ZM15.3616 12.0431L15.3028 12.0946C15.2373 12.145 15.1575 12.1734 15.0749 12.1755C15.0194 12.1895 14.9613 12.1895 14.9058 12.1755C14.7188 12.0773 14.5588 11.9347 14.4396 11.7604C14.3204 11.5861 14.2457 11.3853 14.222 11.1755C14.2147 11.08 14.2147 10.9842 14.222 10.8887C14.214 10.8007 14.214 10.7121 14.222 10.624C14.3028 10.2122 14.5822 9.98429 14.9058 10.1093C15.116 10.229 15.2908 10.4023 15.4122 10.6116C15.5336 10.8208 15.5974 11.0586 15.5969 11.3005C15.6003 11.3323 15.6003 11.3643 15.5969 11.3961C15.614 11.6416 15.5349 11.8842 15.3764 12.0726L15.3616 12.0431ZM18.2587 10.102L9.49274 6.75635V11.5505L18.2587 14.5799C18.6631 14.7196 18.994 14.3446 18.994 13.7343V11.4696C19.0112 11.1957 18.9515 10.9225 18.8216 10.6808C18.6916 10.4391 18.4967 10.2386 18.2587 10.102Z" fill="#FFB4EF"/>
<path fill-rule="evenodd" clip-rule="evenodd" d="M18.4719 4.59443L13.8984 2.63856C13.5896 2.51356 13.347 2.76358 13.347 3.21211V6.26356C13.3378 6.46687 13.3843 6.66883 13.4815 6.84766C13.5787 7.02648 13.7228 7.17537 13.8984 7.27827L18.4719 9.06503C18.7514 9.17532 18.9793 8.91799 18.9793 8.49152V5.55034C18.9826 5.36109 18.9378 5.1741 18.8491 5.00691C18.7603 4.83971 18.6305 4.69776 18.4719 4.59443Z" fill="#FFB4EF"/>
<path fill-rule="evenodd" clip-rule="evenodd" d="M9.49402 0.756348V5.55048L11.0161 6.14607C11.4573 6.32254 11.8249 5.94753 11.8249 5.30782V2.90339C11.8269 2.60961 11.7535 2.32024 11.612 2.06281C11.4704 1.80539 11.2652 1.58848 11.0161 1.43281L9.49402 0.756348Z" fill="#FFB4EF"/>
</svg>
