<svg width="439" height="391" viewBox="0 0 439 391" fill="none" xmlns="http://www.w3.org/2000/svg">
<g opacity="0.5" clip-path="url(#clip0_482_18664)" filter="url(#filter0_f_482_18664)">
<path fill-rule="evenodd" clip-rule="evenodd" d="M102.576 110.319L164.579 217.711C170.711 228.33 180.097 236.753 191.55 241.913C203.003 247.074 216.009 248.741 228.922 246.703C241.836 244.666 254.077 239.015 264.099 230.466C274.12 221.917 281.472 210.854 285.224 198.675C288.975 186.496 288.959 173.748 285.176 162.044C281.394 150.34 274.015 140.206 263.973 132.921C253.931 125.637 241.677 121.531 228.761 121.122C215.844 120.713 202.845 124.019 191.407 130.623C176.067 139.466 158.096 142.294 141.441 138.488C124.786 134.681 110.808 124.549 102.576 110.319Z" fill="#5600E3"/>
<path fill-rule="evenodd" clip-rule="evenodd" d="M269.929 54.283L328.716 156.104C334.529 166.173 336.996 177.873 335.805 189.724C334.614 201.575 329.818 213.044 322.023 222.682C314.228 232.32 303.786 239.693 292.015 243.87C280.244 248.047 267.675 248.839 255.896 246.146C244.117 243.453 233.657 237.397 225.84 228.743C218.022 220.089 213.198 209.225 211.977 197.527C210.756 185.828 213.194 173.819 218.981 163.019C224.768 152.219 233.646 143.112 244.491 136.851C259.023 128.446 269.864 115.03 274.633 99.5497C279.403 84.0692 277.711 67.7889 269.929 54.283Z" fill="#FF92E2"/>
<path d="M134.956 191.044L226.12 74.9539L186.462 182.162L237.967 173.28L146.803 289.37L186.462 182.162L134.956 191.044Z" fill="#2BF2FF"/>
</g>
<defs>
<filter id="filter0_f_482_18664" x="-69.8199" y="-117.28" width="577.995" height="578.114" filterUnits="userSpaceOnUse" color-interpolation-filters="sRGB">
<feFlood flood-opacity="0" result="BackgroundImageFix"/>
<feBlend mode="normal" in="SourceGraphic" in2="BackgroundImageFix" result="shape"/>
<feGaussianBlur stdDeviation="35" result="effect1_foregroundBlur_482_18664"/>
</filter>
<clipPath id="clip0_482_18664">
<rect width="320.841" height="320.515" fill="white" transform="translate(277.754 -47.2803) rotate(60)"/>
</clipPath>
</defs>
</svg>
