<svg width="14" height="14" viewBox="0 0 14 14" fill="none" xmlns="http://www.w3.org/2000/svg">
<path d="M5.5652 0.588533C5.64654 0.687381 5.69638 0.808352 5.70827 0.935816C5.72015 1.06328 5.69354 1.19138 5.63187 1.30356C5.15006 2.18816 4.89845 3.17972 4.90017 4.18702C4.90017 7.53799 7.63195 10.2514 10.9988 10.2514C11.4379 10.2514 11.8655 10.2056 12.2763 10.1181C12.4023 10.0908 12.5334 10.1013 12.6535 10.1481C12.7735 10.1949 12.8771 10.2761 12.9513 10.3814C13.0297 10.491 13.0696 10.6233 13.0649 10.7579C13.0603 10.8925 13.0112 11.0218 12.9255 11.1256C12.2719 11.9285 11.4473 12.5754 10.5119 13.0192C9.57655 13.463 8.55392 13.6924 7.51861 13.6907C3.67678 13.6907 0.564987 10.5956 0.564987 6.78212C0.564987 3.912 2.32673 1.45024 4.83517 0.406859C4.96012 0.35405 5.09883 0.343211 5.23047 0.375971C5.36211 0.40873 5.47957 0.483319 5.5652 0.588533Z" fill="#90939E"/>
<path d="M9.56061 2.9806C9.57256 2.94451 9.59558 2.9131 9.6264 2.89084C9.65722 2.86858 9.69427 2.8566 9.73228 2.8566C9.7703 2.8566 9.80735 2.86858 9.83817 2.89084C9.86899 2.9131 9.89201 2.94451 9.90396 2.9806L10.2265 3.94897C10.3706 4.38065 10.709 4.719 11.1407 4.86317L12.109 5.18569C12.1451 5.19764 12.1765 5.22066 12.1988 5.25148C12.2211 5.2823 12.233 5.31935 12.233 5.35736C12.233 5.39538 12.2211 5.43243 12.1988 5.46325C12.1765 5.49407 12.1451 5.51709 12.109 5.52904L11.1407 5.85155C10.9278 5.92248 10.7343 6.04203 10.5756 6.20071C10.4169 6.35939 10.2974 6.55285 10.2265 6.76576L9.90396 7.73413C9.89201 7.77022 9.86899 7.80162 9.83817 7.82388C9.80735 7.84614 9.7703 7.85812 9.73228 7.85812C9.69427 7.85812 9.65722 7.84614 9.6264 7.82388C9.59558 7.80162 9.57256 7.77022 9.56061 7.73413L9.2381 6.76576C9.16716 6.55285 9.04762 6.35939 8.88894 6.20071C8.73025 6.04203 8.5368 5.92248 8.32389 5.85155L7.35552 5.52904C7.31943 5.51709 7.28802 5.49407 7.26576 5.46325C7.2435 5.43243 7.23152 5.39538 7.23152 5.35736C7.23152 5.31935 7.2435 5.2823 7.26576 5.25148C7.28802 5.22066 7.31943 5.19764 7.35552 5.18569L8.32389 4.86317C8.5368 4.79224 8.73025 4.6727 8.88894 4.51401C9.04762 4.35533 9.16716 4.16187 9.2381 3.94897L9.56061 2.9806ZM12.1182 0.439654C12.1264 0.415925 12.1419 0.395349 12.1623 0.380786C12.1828 0.366224 12.2073 0.358398 12.2324 0.358398C12.2575 0.358398 12.282 0.366224 12.3025 0.380786C12.3229 0.395349 12.3383 0.415925 12.3466 0.439654L12.5616 1.08468C12.6574 1.37303 12.8832 1.59887 13.1716 1.69471L13.8166 1.90972C13.8404 1.91794 13.8609 1.93336 13.8755 1.95382C13.8901 1.97428 13.8979 1.99877 13.8979 2.02389C13.8979 2.049 13.8901 2.07349 13.8755 2.09395C13.8609 2.11442 13.8404 2.12983 13.8166 2.13806L13.1716 2.35307C13.0295 2.40034 12.9004 2.48009 12.7945 2.58598C12.6886 2.69187 12.6088 2.821 12.5616 2.96309L12.3466 3.60812C12.3383 3.63185 12.3229 3.65243 12.3025 3.66699C12.282 3.68155 12.2575 3.68938 12.2324 3.68938C12.2073 3.68938 12.1828 3.68155 12.1623 3.66699C12.1419 3.65243 12.1264 3.63185 12.1182 3.60812L11.9032 2.96309C11.8559 2.821 11.7762 2.69187 11.6703 2.58598C11.5644 2.48009 11.4353 2.40034 11.2932 2.35307L10.6482 2.13806C10.6244 2.12983 10.6038 2.11442 10.5893 2.09395C10.5747 2.07349 10.5669 2.049 10.5669 2.02389C10.5669 1.99877 10.5747 1.97428 10.5893 1.95382C10.6038 1.93336 10.6244 1.91794 10.6482 1.90972L11.2932 1.69471C11.5815 1.59887 11.8074 1.37303 11.9032 1.08468L12.1182 0.440487V0.439654Z" fill="#8B8B8B" fill-opacity="0.6"/>
</svg>
