<svg width="265" height="92" viewBox="0 0 265 92" fill="none" xmlns="http://www.w3.org/2000/svg">
<g filter="url(#filter0_d_3513_5040)">
<rect x="24.3547" y="22.8354" width="52.1168" height="52.1168" rx="2" transform="rotate(-10 24.3547 22.8354)" fill="white"/>
<rect x="24.9339" y="23.241" width="51.1168" height="51.1168" rx="1.5" transform="rotate(-10 24.9339 23.241)" stroke="url(#paint0_linear_3513_5040)"/>
</g>
<path d="M46.1228 34.0466H41.1593C40.7044 34.0466 40.3321 34.4189 40.3321 34.8739V53.0734C40.3321 53.5284 40.7044 53.9006 41.1593 53.9006H46.1228C46.5778 53.9006 46.9501 53.5284 46.9501 53.0734V34.8739C46.9501 34.4189 46.5778 34.0466 46.1228 34.0466ZM45.2956 39.0101H41.9866V37.3556H45.2956V39.0101ZM54.3954 34.0466H49.4318C48.9769 34.0466 48.6046 34.4189 48.6046 34.8739V53.0734C48.6046 53.5284 48.9769 53.9006 49.4318 53.9006H54.3954C54.8503 53.9006 55.2226 53.5284 55.2226 53.0734V34.8739C55.2226 34.4189 54.8503 34.0466 54.3954 34.0466ZM53.5681 39.0101H50.2591V37.3556H53.5681V39.0101Z" fill="url(#paint1_linear_3513_5040)"/>
<path d="M55.9036 38.0055C55.9038 38.0054 55.9041 38.0053 55.9043 38.0052L60.3327 35.7736C60.333 35.7734 60.3333 35.7733 60.3336 35.7731C60.4115 35.7347 60.5013 35.7285 60.5837 35.7557C60.6663 35.7831 60.7347 35.8418 60.7743 35.9192C60.7743 35.9194 60.7744 35.9196 60.7745 35.9198L68.2178 50.6905C68.2179 50.6908 68.2181 50.6911 68.2182 50.6914C68.2567 50.7692 68.2629 50.8591 68.2356 50.9415L68.7103 51.0986L68.2356 50.9415C68.2083 51.024 68.1496 51.0925 68.0722 51.132C68.072 51.1321 68.0718 51.1322 68.0716 51.1323L63.6432 53.3639C63.6429 53.3641 63.6426 53.3642 63.6423 53.3644C63.5644 53.4028 63.4746 53.409 63.3922 53.3818C63.3096 53.3544 63.2412 53.2957 63.2016 53.2183C63.2015 53.2181 63.2014 53.2179 63.2013 53.2177L55.7581 38.447C55.7579 38.4467 55.7578 38.4464 55.7576 38.4461C55.7192 38.3682 55.713 38.2784 55.7402 38.196C55.7675 38.1135 55.8262 38.045 55.9036 38.0055Z" fill="url(#paint2_linear_3513_5040)" stroke="url(#paint3_linear_3513_5040)"/>
<path d="M248.986 38.4744L256.884 30.576V37.4773C256.884 38.0289 257.337 38.4814 257.888 38.4814C258.44 38.4814 258.885 38.036 258.885 37.4844V28.1647C258.885 27.6132 258.44 27.1677 257.888 27.1677L248.569 27.1677C248.017 27.1677 247.571 27.6132 247.571 28.1647C247.571 28.7163 248.017 29.1618 248.569 29.1618L255.47 29.1618L247.571 37.0601C247.183 37.4491 247.183 38.0855 247.571 38.4744C247.96 38.8633 248.597 38.8633 248.986 38.4744Z" fill="#90939E"/>
<defs>
<filter id="filter0_d_3513_5040" x="0.671265" y="0.102051" width="91.7418" height="91.7419" filterUnits="userSpaceOnUse" color-interpolation-filters="sRGB">
<feFlood flood-opacity="0" result="BackgroundImageFix"/>
<feColorMatrix in="SourceAlpha" type="matrix" values="0 0 0 0 0 0 0 0 0 0 0 0 0 0 0 0 0 0 127 0" result="hardAlpha"/>
<feOffset dx="-8" dy="2"/>
<feGaussianBlur stdDeviation="8"/>
<feColorMatrix type="matrix" values="0 0 0 0 0 0 0 0 0 0.0366666 0 0 0 0 0.916667 0 0 0 0.24 0"/>
<feBlend mode="normal" in2="BackgroundImageFix" result="effect1_dropShadow_3513_5040"/>
<feBlend mode="normal" in="SourceGraphic" in2="effect1_dropShadow_3513_5040" result="shape"/>
</filter>
<linearGradient id="paint0_linear_3513_5040" x1="-1.70372" y1="48.8938" x2="50.4131" y2="101.011" gradientUnits="userSpaceOnUse">
<stop stop-color="#92D8FF"/>
<stop offset="0.732292" stop-color="#9C00E6" stop-opacity="0"/>
</linearGradient>
<linearGradient id="paint1_linear_3513_5040" x1="32.8868" y1="43.9736" x2="51.9467" y2="58.2685" gradientUnits="userSpaceOnUse">
<stop stop-color="#FF92E2"/>
<stop offset="0.919792" stop-color="#932C6E"/>
</linearGradient>
<linearGradient id="paint2_linear_3513_5040" x1="48.4591" y1="44.5688" x2="66.1939" y2="57.4272" gradientUnits="userSpaceOnUse">
<stop stop-color="#FF92E2"/>
<stop offset="0.919792" stop-color="#932C6E"/>
</linearGradient>
<linearGradient id="paint3_linear_3513_5040" x1="48.4591" y1="44.5688" x2="66.1939" y2="57.4272" gradientUnits="userSpaceOnUse">
<stop stop-color="#FF92E2"/>
<stop offset="0.919792" stop-color="#932C6E"/>
</linearGradient>
</defs>
</svg>
