<svg width="20" height="20" viewBox="0 0 20 20" fill="none" xmlns="http://www.w3.org/2000/svg">
<path d="M13.7089 9.69141C13.7089 10.151 13.6183 10.6062 13.4424 11.0308C13.2665 11.4554 13.0087 11.8413 12.6837 12.1663C12.3587 12.4913 11.9729 12.7491 11.5483 12.925C11.1236 13.1009 10.6685 13.1914 10.2089 13.1914C9.74924 13.1914 9.29411 13.1009 8.86947 12.925C8.44483 12.7491 8.05899 12.4913 7.73399 12.1663C7.40898 11.8413 7.15118 11.4554 6.97528 11.0308C6.79939 10.6062 6.70886 10.151 6.70886 9.69141C6.70886 8.76315 7.07761 7.87291 7.73399 7.21653C8.39037 6.56016 9.2806 6.19141 10.2089 6.19141C11.1371 6.19141 12.0274 6.56016 12.6837 7.21653C13.3401 7.87291 13.7089 8.76315 13.7089 9.69141ZM0.708862 9.69141C0.708862 9.42619 0.814219 9.17184 1.00176 8.9843C1.18929 8.79676 1.44365 8.69141 1.70886 8.69141H3.70886C3.97408 8.69141 4.22843 8.79676 4.41597 8.9843C4.60351 9.17184 4.70886 9.42619 4.70886 9.69141C4.70886 9.95662 4.60351 10.211 4.41597 10.3985C4.22843 10.586 3.97408 10.6914 3.70886 10.6914H1.70886C1.44365 10.6914 1.18929 10.586 1.00176 10.3985C0.814219 10.211 0.708862 9.95662 0.708862 9.69141ZM15.7089 9.69141C15.7089 9.42619 15.8142 9.17184 16.0018 8.9843C16.1893 8.79676 16.4436 8.69141 16.7089 8.69141H18.7089C18.9741 8.69141 19.2284 8.79676 19.416 8.9843C19.6035 9.17184 19.7089 9.42619 19.7089 9.69141C19.7089 9.95662 19.6035 10.211 19.416 10.3985C19.2284 10.586 18.9741 10.6914 18.7089 10.6914H16.7089C16.4436 10.6914 16.1893 10.586 16.0018 10.3985C15.8142 10.211 15.7089 9.95662 15.7089 9.69141ZM15.6229 13.6914L17.0369 15.1054C17.219 15.294 17.3198 15.5466 17.3175 15.8088C17.3153 16.071 17.2101 16.3218 17.0247 16.5072C16.8393 16.6926 16.5885 16.7978 16.3263 16.8001C16.0641 16.8024 15.8115 16.7016 15.6229 16.5194L14.2089 15.1054C14.0267 14.9168 13.9259 14.6642 13.9282 14.402C13.9305 14.1398 14.0356 13.889 14.221 13.7036C14.4065 13.5182 14.6573 13.413 14.9195 13.4107C15.1817 13.4085 15.4343 13.5092 15.6229 13.6914ZM3.20886 2.69141C3.39639 2.50394 3.6507 2.39862 3.91586 2.39862C4.18103 2.39862 4.43533 2.50394 4.62286 2.69141L6.03686 4.10541C6.13237 4.19765 6.20855 4.308 6.26096 4.43C6.31337 4.55201 6.34096 4.68323 6.34211 4.81601C6.34327 4.94878 6.31797 5.08046 6.26768 5.20336C6.2174 5.32626 6.14315 5.43791 6.04926 5.5318C5.95536 5.62569 5.84371 5.69995 5.72082 5.75023C5.59792 5.80051 5.46624 5.82581 5.33346 5.82466C5.20068 5.8235 5.06946 5.79592 4.94746 5.74351C4.82545 5.6911 4.71511 5.61492 4.62286 5.51941L3.20886 4.10541C3.02139 3.91788 2.91608 3.66357 2.91608 3.39841C2.91608 3.13324 3.02139 2.87893 3.20886 2.69141ZM10.2089 15.1914C10.4741 15.1914 10.7284 15.2968 10.916 15.4843C11.1035 15.6718 11.2089 15.9262 11.2089 16.1914V18.1914C11.2089 18.4566 11.1035 18.711 10.916 18.8985C10.7284 19.0861 10.4741 19.1914 10.2089 19.1914C9.94365 19.1914 9.68929 19.0861 9.50176 18.8985C9.31422 18.711 9.20886 18.4566 9.20886 18.1914V16.1914C9.20886 15.9262 9.31422 15.6718 9.50176 15.4843C9.68929 15.2968 9.94365 15.1914 10.2089 15.1914ZM10.2089 0.191406C10.4741 0.191406 10.7284 0.296763 10.916 0.484299C11.1035 0.671836 11.2089 0.92619 11.2089 1.19141V3.19141C11.2089 3.45662 11.1035 3.71098 10.916 3.89851C10.7284 4.08605 10.4741 4.19141 10.2089 4.19141C9.94365 4.19141 9.68929 4.08605 9.50176 3.89851C9.31422 3.71098 9.20886 3.45662 9.20886 3.19141V1.19141C9.20886 0.92619 9.31422 0.671836 9.50176 0.484299C9.68929 0.296763 9.94365 0.191406 10.2089 0.191406ZM17.0369 2.69141C17.2243 2.87893 17.3296 3.13324 17.3296 3.39841C17.3296 3.66357 17.2243 3.91788 17.0369 4.10541L15.6229 5.51941C15.5306 5.61492 15.4203 5.6911 15.2983 5.74351C15.1763 5.79592 15.045 5.8235 14.9123 5.82466C14.7795 5.82581 14.6478 5.80051 14.5249 5.75023C14.402 5.69995 14.2904 5.62569 14.1965 5.5318C14.1026 5.43791 14.0283 5.32626 13.978 5.20336C13.9278 5.08046 13.9025 4.94878 13.9036 4.81601C13.9048 4.68323 13.9324 4.55201 13.9848 4.43C14.0372 4.308 14.1134 4.19765 14.2089 4.10541L15.6229 2.69141C15.8104 2.50394 16.0647 2.39862 16.3299 2.39862C16.595 2.39862 16.8493 2.50394 17.0369 2.69141ZM6.03686 13.6914C6.22433 13.8789 6.32965 14.1332 6.32965 14.3984C6.32965 14.6636 6.22433 14.9179 6.03686 15.1054L4.62286 16.5194C4.43426 16.7016 4.18166 16.8024 3.91946 16.8001C3.65726 16.7978 3.40645 16.6926 3.22104 16.5072C3.03564 16.3218 2.93047 16.071 2.92819 15.8088C2.92591 15.5466 3.0267 15.294 3.20886 15.1054L4.62286 13.6914C4.81039 13.5039 5.0647 13.3986 5.32986 13.3986C5.59503 13.3986 5.84933 13.5039 6.03686 13.6914Z" fill="#8B8B8B" fill-opacity="0.6"/>
</svg>
