<svg width="25" height="25" viewBox="0 0 25 25" fill="none" xmlns="http://www.w3.org/2000/svg">
<path d="M18.2089 13.9736H13.2089V18.9736C13.2089 19.5236 12.7589 19.9736 12.2089 19.9736C11.6589 19.9736 11.2089 19.5236 11.2089 18.9736V13.9736H6.20886C5.65886 13.9736 5.20886 13.5236 5.20886 12.9736C5.20886 12.4236 5.65886 11.9736 6.20886 11.9736H11.2089V6.97363C11.2089 6.42363 11.6589 5.97363 12.2089 5.97363C12.7589 5.97363 13.2089 6.42363 13.2089 6.97363V11.9736H18.2089C18.7589 11.9736 19.2089 12.4236 19.2089 12.9736C19.2089 13.5236 18.7589 13.9736 18.2089 13.9736Z" fill="#8B8B8B" fill-opacity="0.6"/>
</svg>
